<?xml version="1.0" encoding="iso-8859-1"?>
<!-- Generator: Adobe Illustrator 18.1.1, SVG Export Plug-In . SVG Version: 6.00 Build 0)  -->
<svg version="1.1" id="Capa_1" xmlns="http://www.w3.org/2000/svg" xmlns:xlink="http://www.w3.org/1999/xlink" x="0px" y="0px"
	 viewBox="0 0 54.181 54.181" style="enable-background:new 0 0 54.181 54.181;" xml:space="preserve">
<g>
	<g>
		<path style="fill:#010002;" d="M40.912,28.362c-1.264-14.192-8.026-17.024-8.026-17.024s-6.539-3.931-13.422,1.076
			c-4.461,4.059-5.491,10.259-6.195,16.247c-0.358,3.041,4.402,3.007,4.755,0c0.421-3.573,1.022-7.164,2.796-10.22l-0.009,3.451
			l-5.374,16.577h5.342v13.149c0,1.416,1.036,2.563,2.491,2.563s2.635-1.146,2.635-2.563V38.469h2.328c0,4.404,0,8.808,0,13.211
			c0,3.067,4.758,3.067,4.758,0c0-4.403,0-8.807,0-13.211h5.447L33.192,21.86c0.002-1.586,0.004-3.003,0.004-3.989
			c1.901,3.114,2.527,6.812,2.961,10.492C36.511,31.37,41.27,31.405,40.912,28.362z"/>
		<circle style="fill:#010002;" cx="27.09" cy="4.584" r="4.584"/>
	</g>
</g>
<g>
</g>
<g>
</g>
<g>
</g>
<g>
</g>
<g>
</g>
<g>
</g>
<g>
</g>
<g>
</g>
<g>
</g>
<g>
</g>
<g>
</g>
<g>
</g>
<g>
</g>
<g>
</g>
<g>
</g>
</svg>
