<?xml version="1.0" encoding="utf-8"?>
<!-- Generator: Adobe Illustrator 21.1.0, SVG Export Plug-In . SVG Version: 6.00 Build 0)  -->
<svg version="1.1" id="Layer_1" xmlns="http://www.w3.org/2000/svg" xmlns:xlink="http://www.w3.org/1999/xlink" x="0px" y="0px"
	 viewBox="0 0 100 49" style="enable-background:new 0 0 100 49;" xml:space="preserve">
<style type="text/css">
	.st0{fill:none;stroke:#12EBDF;}
	.st1{fill:none;stroke:#80F9C0;}
	.st2{fill:none;stroke:#00C0FF;}
	.st3{enable-background:new    ;}
	.st4{fill:#374955;}
</style>
<path id="Oval-Copy-12" class="st0" d="M44.4,17.1C41.6,11.1,35.5,7,28.5,7C18.8,7,11,14.8,11,24.5S18.8,42,28.5,42
	c6.9,0,12.9-4,15.8-9.9"/>
<path id="Oval-Copy-13" class="st1" d="M46.8,17.1C43.7,7.7,34.9,1,24.5,1C11.5,1,1,11.5,1,24.5S11.5,48,24.5,48
	c10.3,0,19.1-6.7,22.3-15.9"/>
<path id="Oval-Copy-14" class="st2" d="M40,17.1c-1.9-1.9-4.6-3.1-7.5-3.1C26.7,14,22,18.7,22,24.5S26.7,35,32.5,35
	c2.9,0,5.6-1.2,7.5-3.1"/>
<g class="st3">
	<path class="st4" d="M36,28.5c-0.7-0.4-1.3-1-1.7-1.7c-0.4-0.7-0.6-1.5-0.6-2.4s0.2-1.7,0.6-2.4c0.4-0.7,1-1.3,1.7-1.7
		s1.5-0.6,2.4-0.6c0.7,0,1.3,0.1,1.9,0.3c0.6,0.2,1.1,0.6,1.5,1l-0.6,0.6c-0.7-0.7-1.6-1.1-2.7-1.1c-0.7,0-1.4,0.2-2,0.5
		c-0.6,0.3-1.1,0.8-1.4,1.4c-0.3,0.6-0.5,1.2-0.5,1.9s0.2,1.4,0.5,1.9s0.8,1,1.4,1.4c0.6,0.3,1.2,0.5,2,0.5c1.1,0,2-0.4,2.7-1.1
		l0.6,0.6c-0.4,0.4-0.9,0.8-1.5,1c-0.6,0.2-1.2,0.3-1.9,0.3C37.5,29.1,36.7,28.9,36,28.5z"/>
	<path class="st4" d="M44.8,19.9h1V29h-1V19.9z"/>
	<path class="st4" d="M55.9,29l-2.1-2.9c-0.2,0-0.5,0-0.7,0h-2.4V29h-1v-9.1h3.4c1.2,0,2.1,0.3,2.7,0.8c0.7,0.6,1,1.3,1,2.3
		c0,0.7-0.2,1.3-0.5,1.8c-0.4,0.5-0.9,0.8-1.5,1.1L57,29H55.9z M55.2,24.7c0.5-0.4,0.7-1,0.7-1.7c0-0.7-0.2-1.3-0.7-1.7
		c-0.5-0.4-1.2-0.6-2.1-0.6h-2.4v4.6h2.4C54,25.3,54.7,25.1,55.2,24.7z"/>
	<path class="st4" d="M61.6,28.5c-0.7-0.4-1.3-1-1.7-1.7c-0.4-0.7-0.6-1.5-0.6-2.4s0.2-1.7,0.6-2.4c0.4-0.7,1-1.3,1.7-1.7
		s1.5-0.6,2.4-0.6c0.7,0,1.3,0.1,1.9,0.3s1.1,0.6,1.5,1l-0.6,0.6c-0.7-0.7-1.6-1.1-2.7-1.1c-0.7,0-1.4,0.2-2,0.5
		c-0.6,0.3-1.1,0.8-1.4,1.4c-0.3,0.6-0.5,1.2-0.5,1.9s0.2,1.4,0.5,1.9c0.3,0.6,0.8,1,1.4,1.4c0.6,0.3,1.2,0.5,2,0.5
		c1.1,0,2-0.4,2.7-1.1l0.6,0.6c-0.4,0.4-0.9,0.8-1.5,1c-0.6,0.2-1.2,0.3-1.9,0.3C63.2,29.1,62.4,28.9,61.6,28.5z"/>
	<path class="st4" d="M70.5,19.9h1v8.3h5.1V29h-6.1V19.9z"/>
	<path class="st4" d="M85.5,28.2V29h-6.4v-9.1h6.2v0.8h-5.3V24h4.7v0.8h-4.7v3.4H85.5z"/>
	<path class="st4" d="M89.3,28.8c-0.6-0.2-1.1-0.5-1.4-0.9l0.4-0.7c0.3,0.3,0.8,0.6,1.3,0.8c0.5,0.2,1.1,0.3,1.7,0.3
		c0.8,0,1.4-0.1,1.8-0.4c0.4-0.3,0.6-0.7,0.6-1.2c0-0.4-0.1-0.7-0.3-0.9c-0.2-0.2-0.5-0.4-0.8-0.5c-0.3-0.1-0.8-0.2-1.3-0.4
		c-0.7-0.2-1.2-0.3-1.6-0.5s-0.8-0.4-1-0.7c-0.3-0.3-0.4-0.8-0.4-1.3c0-0.5,0.1-0.9,0.4-1.3s0.6-0.7,1.1-0.9s1.1-0.3,1.9-0.3
		c0.5,0,1,0.1,1.5,0.2c0.5,0.1,0.9,0.3,1.3,0.6L94,21.4c-0.4-0.3-0.8-0.4-1.2-0.6c-0.4-0.1-0.9-0.2-1.3-0.2c-0.8,0-1.4,0.2-1.8,0.5
		c-0.4,0.3-0.6,0.7-0.6,1.2c0,0.4,0.1,0.7,0.3,0.9c0.2,0.2,0.5,0.4,0.8,0.5c0.3,0.1,0.8,0.2,1.3,0.4c0.7,0.2,1.2,0.3,1.6,0.5
		c0.4,0.2,0.8,0.4,1,0.7c0.3,0.3,0.4,0.8,0.4,1.3c0,0.5-0.1,0.9-0.4,1.3c-0.2,0.4-0.6,0.7-1.1,0.9c-0.5,0.2-1.1,0.3-1.9,0.3
		C90.6,29.1,90,29,89.3,28.8z"/>
</g>
</svg>
